<svg version="1.1" id="Layer_1" xmlns="http://www.w3.org/2000/svg" xmlns:xlink="http://www.w3.org/1999/xlink" x="0px" y="0px"
	 width="100%" viewBox="0 0 1027 969" enable-background="new 0 0 1027 969" xml:space="preserve">
<path fill="#FFFFFF" opacity="1.000000" stroke="none" 
	d="
M719.000000,970.000000 
	C479.333344,970.000000 240.166672,970.000000 1.000000,970.000000 
	C1.000000,647.000000 1.000000,324.000000 1.000000,1.000000 
	C343.333344,1.000000 685.666687,1.000000 1028.000000,1.000000 
	C1028.000000,324.000000 1028.000000,647.000000 1028.000000,970.000000 
	C925.166687,970.000000 822.333313,970.000000 719.000000,970.000000 
M959.924255,382.623505 
	C941.090759,334.503571 909.208984,297.675873 863.726868,273.146484 
	C818.073669,248.524841 769.506287,242.860474 718.622986,253.448990 
	C714.430054,220.561707 703.677063,190.577850 685.593384,163.326843 
	C667.405212,135.918427 644.069214,113.969040 615.576294,97.526848 
	C587.219849,81.163391 556.620911,72.095352 523.992676,70.287636 
	C481.408356,67.928322 441.393524,77.257721 405.028015,99.604782 
	C347.607269,134.890533 314.879211,186.725723 305.153778,253.195724 
	C187.795685,227.046310 81.314568,303.446381 56.745937,406.443939 
	C44.675903,457.044403 49.878662,505.924988 74.092064,552.032043 
	C104.083748,609.142090 151.478119,644.441223 214.252350,659.875488 
	C214.252350,705.973450 214.252350,751.902893 214.252350,797.962769 
	C412.924072,797.962769 611.169861,797.962769 810.018494,797.962769 
	C810.018494,751.647766 810.018494,705.595215 810.018494,659.687378 
	C935.140808,630.975037 1003.930786,501.415710 959.924255,382.623505 
M466.500031,826.870850 
	C382.547943,826.870850 298.595886,826.870850 214.104492,826.870850 
	C214.104492,838.459778 213.968353,849.579712 214.162521,860.693787 
	C214.258118,866.166016 214.287140,871.785034 215.514877,877.065979 
	C220.255280,897.455933 237.429031,910.095459 259.759552,910.096741 
	C427.921783,910.106262 596.083984,910.101868 764.246216,910.097534 
	C765.912109,910.097473 767.581299,910.094666 769.243469,909.998291 
	C788.496155,908.882141 806.138672,895.068481 808.461365,876.069092 
	C810.419495,860.051697 808.864441,843.604797 808.864441,826.870789 
	C695.405823,826.870789 581.452942,826.870789 466.500031,826.870850 
z"/>
<path fill="#231F20" opacity="1.000000" stroke="none" 
	d="
M960.031372,382.997742 
	C1003.930786,501.415710 935.140808,630.975037 810.018494,659.687378 
	C810.018494,705.595215 810.018494,751.647766 810.018494,797.962769 
	C611.169861,797.962769 412.924072,797.962769 214.252350,797.962769 
	C214.252350,751.902893 214.252350,705.973450 214.252350,659.875488 
	C151.478119,644.441223 104.083748,609.142090 74.092064,552.032043 
	C49.878662,505.924988 44.675903,457.044403 56.745937,406.443939 
	C81.314568,303.446381 187.795685,227.046310 305.153778,253.195724 
	C314.879211,186.725723 347.607269,134.890533 405.028015,99.604782 
	C441.393524,77.257721 481.408356,67.928322 523.992676,70.287636 
	C556.620911,72.095352 587.219849,81.163391 615.576294,97.526848 
	C644.069214,113.969040 667.405212,135.918427 685.593384,163.326843 
	C703.677063,190.577850 714.430054,220.561707 718.622986,253.448990 
	C769.506287,242.860474 818.073669,248.524841 863.726868,273.146484 
	C909.208984,297.675873 941.090759,334.503571 960.031372,382.997742 
z"/>
<path fill="#232021" opacity="1.000000" stroke="none" 
	d="
M467.000061,826.870850 
	C581.452942,826.870789 695.405823,826.870789 808.864441,826.870789 
	C808.864441,843.604797 810.419495,860.051697 808.461365,876.069092 
	C806.138672,895.068481 788.496155,908.882141 769.243469,909.998291 
	C767.581299,910.094666 765.912109,910.097473 764.246216,910.097534 
	C596.083984,910.101868 427.921783,910.106262 259.759552,910.096741 
	C237.429031,910.095459 220.255280,897.455933 215.514877,877.065979 
	C214.287140,871.785034 214.258118,866.166016 214.162521,860.693787 
	C213.968353,849.579712 214.104492,838.459778 214.104492,826.870850 
	C298.595886,826.870850 382.547943,826.870850 467.000061,826.870850 
z"/>
</svg>